<svg width="189" height="34" viewBox="0 0 189 34" fill="none" xmlns="http://www.w3.org/2000/svg">
<path d="M9.43146 33.9786C7.52732 33.9786 5.89725 33.5733 4.54127 32.7626C3.21415 31.923 2.20437 30.7649 1.51196 29.2883C0.819543 27.8117 0.473335 26.0891 0.473335 24.1203V9.74546H6.96473V23.5992C6.96473 24.4967 7.13783 25.2929 7.48404 25.9877C7.8591 26.6537 8.37841 27.1748 9.04197 27.5512C9.70554 27.9276 10.4557 28.1157 11.2923 28.1157C12.1578 28.1157 12.908 27.9276 13.5427 27.5512C14.2062 27.1748 14.7111 26.6537 15.0573 25.9877C15.4324 25.2929 15.6199 24.4967 15.6199 23.5992V9.74546H22.1113V33.4575H16.0527V28.7672L16.3989 29.8095C15.8507 31.2281 14.9564 32.2849 13.7158 32.9797C12.504 33.6457 11.0759 33.9786 9.43146 33.9786Z" fill="#1C1B1B"/>
<path d="M27.0722 33.4575V9.74546H33.5635V33.4575H27.0722ZM27.0722 7.61746V1.10317H33.5635V7.61746H27.0722Z" fill="#1C1B1B"/>
<path d="M50.1281 33.9786C47.7623 33.9786 45.6274 33.443 43.7233 32.3717C41.848 31.2716 40.3477 29.7805 39.2226 27.8986C38.1262 26.0167 37.5781 23.9032 37.5781 21.558C37.5781 19.2129 38.1262 17.1138 39.2226 15.2609C40.3189 13.379 41.8191 11.9024 43.7233 10.8312C45.6274 9.75994 47.7623 9.22432 50.1281 9.22432C51.888 9.22432 53.518 9.52832 55.0183 10.1363C56.5185 10.7443 57.8024 11.5984 58.8698 12.6986C59.9373 13.7698 60.7019 15.0437 61.1635 16.5203L55.5376 18.9523C55.1337 17.7653 54.4413 16.8243 53.4603 16.1295C52.5083 15.4346 51.3975 15.0872 50.1281 15.0872C49.0029 15.0872 47.9931 15.3622 47.0988 15.9123C46.2333 16.4624 45.5408 17.2297 45.0215 18.214C44.5311 19.1984 44.2858 20.3276 44.2858 21.6015C44.2858 22.8754 44.5311 24.0045 45.0215 24.9889C45.5408 25.9733 46.2333 26.7405 47.0988 27.2906C47.9931 27.8407 49.0029 28.1157 50.1281 28.1157C51.4264 28.1157 52.5515 27.7683 53.5036 27.0735C54.4557 26.3786 55.1337 25.4377 55.5376 24.2506L61.1635 26.726C60.7307 28.1157 59.9806 29.3607 58.9131 30.4609C57.8456 31.5611 56.5618 32.4297 55.0616 33.0666C53.5613 33.6746 51.9168 33.9786 50.1281 33.9786Z" fill="#1C1B1B"/>
<path d="M65.2023 33.4575V0.582031H71.6937V21.6449L69.2703 20.8632L79.6998 9.74546H87.7058L79.1372 19.2997L87.6625 33.4575H80.3056L73.1651 21.4277L76.9301 20.4723L69.703 28.3763L71.6937 24.598V33.4575H65.2023Z" fill="#1C1B1B"/>
<path d="M91.2517 33.4575V1.10317H97.7431L109.817 17.1717H106.788L118.516 1.10317H125.007V33.4575H118.299V8.52946L120.982 9.13746L108.562 25.206H107.697L95.7092 9.13746L97.9595 8.52946V33.4575H91.2517Z" fill="#1C1B1B"/>
<path d="M137.778 33.9786C136.076 33.9786 134.605 33.7036 133.364 33.1535C132.123 32.6034 131.171 31.8217 130.508 30.8083C129.844 29.766 129.512 28.5356 129.512 27.1169C129.512 25.7851 129.815 24.6125 130.421 23.5992C131.027 22.5569 131.95 21.6883 133.191 20.9935C134.46 20.2986 136.033 19.8064 137.908 19.5169L145.135 18.3443V23.1215L139.076 24.2072C138.153 24.3809 137.446 24.6849 136.956 25.1192C136.465 25.5245 136.22 26.118 136.22 26.8997C136.22 27.6236 136.494 28.1881 137.042 28.5935C137.591 28.9988 138.269 29.2015 139.076 29.2015C140.144 29.2015 141.082 28.9698 141.889 28.5066C142.697 28.0434 143.317 27.4209 143.75 26.6392C144.212 25.8285 144.443 24.9455 144.443 23.99V17.8232C144.443 16.9257 144.082 16.1729 143.361 15.5649C142.668 14.9569 141.716 14.6529 140.504 14.6529C139.35 14.6529 138.326 14.9714 137.432 15.6083C136.566 16.2453 135.932 17.0849 135.528 18.1272L130.335 15.6517C130.796 14.3199 131.532 13.1763 132.542 12.2209C133.551 11.2655 134.763 10.5272 136.177 10.006C137.591 9.48489 139.134 9.22432 140.807 9.22432C142.798 9.22432 144.558 9.58622 146.087 10.31C147.616 11.0338 148.799 12.0472 149.636 13.35C150.501 14.6239 150.934 16.115 150.934 17.8232V33.4575H144.875V29.6357L146.347 29.3752C145.654 30.4175 144.89 31.286 144.053 31.9809C143.216 32.6468 142.279 33.139 141.24 33.4575C140.202 33.8049 139.048 33.9786 137.778 33.9786Z" fill="#1C1B1B"/>
<path d="M155.911 33.4575V9.74546H161.97V15.4346L161.537 14.6095C162.056 12.6117 162.907 11.2655 164.09 10.5706C165.302 9.84679 166.73 9.48489 168.375 9.48489H169.759V15.1306H167.725C166.139 15.1306 164.855 15.6228 163.874 16.6072C162.893 17.5626 162.402 18.9234 162.402 20.6895V33.4575H155.911Z" fill="#1C1B1B"/>
<path d="M185.048 33.718C182.191 33.718 179.97 32.9508 178.383 31.4163C176.825 29.8529 176.046 27.6815 176.046 24.902V15.3912H172.065V9.74546H172.281C173.493 9.74546 174.416 9.44146 175.051 8.83346C175.714 8.22546 176.046 7.31346 176.046 6.09746V4.36032H182.538V9.74546H188.077V15.3912H182.538V24.4677C182.538 25.2784 182.682 25.9588 182.97 26.5089C183.259 27.03 183.706 27.4209 184.312 27.6815C184.918 27.942 185.668 28.0723 186.562 28.0723C186.764 28.0723 186.995 28.0578 187.255 28.0289C187.514 27.9999 187.788 27.971 188.077 27.942V33.4575C187.644 33.5154 187.154 33.5733 186.606 33.6312C186.057 33.6891 185.538 33.718 185.048 33.718Z" fill="#1C1B1B"/>
</svg>
